<svg xmlns="http://www.w3.org/2000/svg" width="1600" height="1000" viewBox="0 0 1600 1000" preserveAspectRatio="xMidYMid slice" role="img" aria-label="Azure Residences, Kato Paphos (placeholder)">
  <defs>
    <linearGradient id="az-sky" x1="0" y1="0" x2="0" y2="1">
      <stop offset="0" stop-color="#9FC0D8"/>
      <stop offset="1" stop-color="#DCEAF0"/>
    </linearGradient>
    <linearGradient id="az-sea" x1="0" y1="0" x2="0" y2="1">
      <stop offset="0" stop-color="#6FA0BE"/>
      <stop offset="1" stop-color="#4E7E9C"/>
    </linearGradient>
  </defs>
  <rect width="1600" height="1000" fill="url(#az-sky)"/>
  <rect y="640" width="1600" height="360" fill="url(#az-sea)"/>
  <path d="M0 640 Q400 622 800 640 T1600 640 V690 H0 Z" fill="#FFFFFF" fill-opacity="0.3"/>
  <g fill="#FBF8F1">
    <rect x="240" y="330" width="300" height="320"/>
    <rect x="600" y="280" width="360" height="370"/>
    <rect x="1020" y="350" width="300" height="300"/>
  </g>
  <g fill="#7FA8C2" fill-opacity="0.7">
    <rect x="650" y="330" width="64" height="10"/>
    <rect x="760" y="330" width="64" height="10"/>
    <rect x="870" y="330" width="64" height="10"/>
    <rect x="650" y="430" width="64" height="10"/>
    <rect x="760" y="430" width="64" height="10"/>
    <rect x="650" y="530" width="64" height="10"/>
  </g>
  <text x="80" y="120" font-family="Georgia, serif" font-size="46" fill="#2C4660" fill-opacity="0.85">Azure Residences</text>
  <text x="82" y="158" font-family="Arial, sans-serif" font-size="19" fill="#2C4660" fill-opacity="0.6" letter-spacing="4">KATO PAPHOS · PLACEHOLDER</text>
</svg>
